<?xml version="1.0" encoding="UTF-8" standalone="no"?>
<svg xmlns="http://www.w3.org/2000/svg" width="360" height="540">
  <g transform="translate(0 -512.36218)">
    <rect width="359" height="539" x=".5" y="512.86218" fill="#fff" stroke="#000" stroke-width=".99999976" ry="29.944447"/>
    <path fill="#a00" d="m33.75 512.86218-33.25 66.5v2l34.25-68.5h-1zm20 0-53.25 106.5v2l54.25-108.5h-1zm10 0-63.25 126.5v4l65.25-130.5h-2zm10 0-73.25 146.5v6l76.25-152.5h-3zm10 0-83.25 166.5v8l87.25-174.5h-4zm10 0-93.25 186.5v10l98.25-196.5h-5zm30 0L.5 759.36218v2l124.25-248.5h-1zm10 0L.5 779.36218v4l135.25-270.5h-2zm10 0L.5 799.36218v2l144.25-288.5h-1zm30 0L.5 859.36218v10l178.25-356.5h-5zm10 0L.5 879.36218v8l187.25-374.5h-4zm10 0L.5 899.36218v6l196.25-392.5h-3zm10 0L.5 919.36218v4l205.25-410.5h-2zm10 0L.5 939.36218v2l214.25-428.5h-1zm20 0L.5 979.36218v2l234.25-468.5h-1zm10 0L.5 999.36218v4l245.25-490.5h-2zm10 0-253.25 506.5v2.5625c0 1.05809.0502141 2.09584.15625 3.125L256.75 512.86218h-3zm10 0L3.09375 1034.17468c.5999915 1.34196 1.3109135 2.61611 2.09375 3.84375L267.75 512.86218h-4zm10 0L8.84375 1042.67468c1.0754879 1.11917 2.230584 2.15295 3.46875 3.09375L278.75 512.86218h-5zm30 0-269.5 539h1l269.5-539h-1zm10 0-269.5 539h2l269.5-539h-2zm10 0-269.5 539h1l269.5-539h-1zm-298.1875.40625c-.757214.1233765-1.513325.2588189-2.25.4375L.5 559.36218v4l25.0625-50.09375zm-11.125 4.1875c-1.779319 1.1238365-3.439671 2.4433178-4.9375 3.90625L.78125 538.83093C.60968403 540.133134.5 541.449147.5 542.79968v2.5625l13.9375-27.90625zm335.375 3.25L84.25 1051.86218h5l263.8125-527.625c-.99361-1.257982-2.06971-2.4493684-3.25-3.53125zm6.59375 8.8125L95.25 1051.86218h4l258.9375-517.875c-.47347-1.546921-1.07599-3.040929-1.78125-4.46875zM359.5 545.36218l-253.25 506.5h3l250.25-500.5v-6zm0 22-242.25 484.5h2l240.25-480.5v-4zm0 22-231.25 462.5h1l230.25-460.5v-2zm0 40-211.25 422.5h1l210.25-420.5v-2zm0 18-202.25 404.5h2l200.25-400.5v-4zm0 18-193.25 386.5h3l190.25-380.5v-6zm0 18-184.25 368.5h4l180.25-360.5v-8zm0 18-175.25 350.5h5l170.25-340.5v-10zm0 60-145.25 290.5h1l144.25-288.5v-2zm0 18-136.25 272.5h2l134.25-268.5v-4zm0 22-125.25 250.5h1l124.25-248.5v-2zm0 60-95.25 190.5h5l90.25-180.5v-10zm0 22-84.25 168.5h4l80.25-160.5v-8zm0 22-73.25 146.5h3l70.25-140.5v-6zm0 22-62.25 124.5h2l60.25-120.5v-4zm0 22-51.25 102.5h1l50.25-100.5v-2zm0 40-31.25 62.5h1l30.25-60.5v-2zm0 18-21.65625 43.34375c.8049-.22993 1.59975-.48746 2.375-.78125l19.28125-38.5625v-4zm-.28125 18.53125L350.5 1043.36218c4.66858-4.55981 7.8204-10.65015 8.71875-17.46875z"/>
    <path fill="#55ab55" d="m35.25 512.86218 269.5 539h1l-269.5-539h-1zm9 0 269.5 539h2l-269.5-539h-2zm11 0 269.5 539h1l-269.5-539h-1zm26 0 266.4375 532.90625c1.23817-.9408 2.39326-1.97458 3.46875-3.09375L86.25 512.86218h-5zm11 0 262.5625 525.15625c.78284-1.22764 1.49376-2.50179 2.09375-3.84375L96.25 512.86218h-4zm11 0 256.09375 512.1875c.10604-1.02916.15625-2.06691.15625-3.125v-2.5625l-253.25-506.5h-3zm11 0 245.25 490.5v-4l-243.25-486.5h-2zm11 0 234.25 468.5v-2l-233.25-466.5h-1zm20 0 214.25 428.5v-2l-213.25-426.5h-1zm9 0 205.25 410.5v-4l-203.25-406.5h-2zm9 0 196.25 392.5v-6l-193.25-386.5h-3zm9 0 187.25 374.5v-8l-183.25-366.5h-4zm9 0 178.25 356.5v-10l-173.25-346.5h-5zm34 0 144.25 288.5v-2l-143.25-286.5h-1zm9 0 135.25 270.5v-4l-133.25-266.5h-2zm11 0 124.25 248.5v-2l-123.25-246.5h-1zm26 0 98.25 196.5v-10l-93.25-186.5h-5zm11 0 87.25 174.5v-8l-83.25-166.5h-4zm11 0 76.25 152.5v-6l-73.25-146.5h-3zm11 0 65.25 130.5v-4l-63.25-126.5h-2zm11 0 54.25 108.5v-2l-53.25-106.5h-1zm20 0 34.25 68.5v-2l-33.25-66.5h-1zm9.1875.40625L359.5 563.36218v-4l-22.8125-45.65625c-.73668-.1786811-1.49279-.3141235-2.25-.4375zm11.125 4.1875L359.5 545.36218v-2.5625c0-1.350533-.10968-2.666546-.28125-3.96875L350.5 521.36218c-1.49783-1.4629322-3.15818-2.7824135-4.9375-3.90625zm-335.375 3.25c-1.1802949 1.0818816-2.2563933 2.273268-3.25 3.53125l263.8125 527.625h5L10.1875 520.70593zm-6.59375 8.8125c-.7052585 1.427821-1.3077782 2.921829-1.78125 4.46875l258.9375 517.875h4L3.59375 529.51843zM.5 545.36218v6l250.25 500.5h3L.5 545.36218zm0 22v4l240.25 480.5h2L.5 567.36218zm0 22v2l230.25 460.5h1L.5 589.36218zm0 40v2l210.25 420.5h1L.5 629.36218zm0 18v4l200.25 400.5h2L.5 647.36218zm0 18v6l190.25 380.5h3L.5 665.36218zm0 18v8l180.25 360.5h4L.5 683.36218zm0 18v10l170.25 340.5h5L.5 701.36218zm0 60v2l144.25 288.5h1L.5 761.36218zm0 18v4l134.25 268.5h2L.5 779.36218zm0 22v2l124.25 248.5h1L.5 801.36218zm0 60v10l90.25 180.5h5l-95.25-190.5zm0 22v8l80.25 160.5h4l-84.25-168.5zm0 22v6l70.25 140.5h3l-73.25-146.5zm0 22v4l60.25 120.5h2l-62.25-124.5zm0 22v2l50.25 100.5h1l-51.25-102.5zm0 40v2l30.25 60.5h1l-31.25-62.5zm0 18v4l19.28125 38.5625c.77525.29379 1.570105.55132 2.375.78125L.5 1007.36218zm.28125 18.53125c.8983534 6.8186 4.0501724 12.90894 8.71875 17.46875l-8.71875-17.46875z"/>
  </g>
</svg>